<svg xmlns="http://www.w3.org/2000/svg" viewBox="0 0 32 32" fill="none">
  <path
    d="M16 2 L28 9 L28 23 L16 30 L4 23 L4 9 Z"
    stroke="#c9a227"
    stroke-width="1.5"
    fill="none"
  />
  <path
    d="M16 5 L25 10.5 L25 21.5 L16 27 L7 21.5 L7 10.5 Z"
    stroke="#8b6914"
    stroke-width="1"
    fill="none"
  />
  <ellipse cx="16" cy="16" rx="9" ry="2.5" transform="rotate(-45 16 16)" fill="#1a1a1a" stroke="#0d0d0d" stroke-width="0.5" />
  <ellipse cx="16" cy="16" rx="9" ry="2.5" transform="rotate(45 16 16)" fill="#1a1a1a" stroke="#0d0d0d" stroke-width="0.5" />
  <circle cx="16" cy="16" r="1.5" fill="#1a1a1a" />
  <path
    d="M16 8 L16.8 10.5 L19.5 10.5 L17.4 12.2 L18 14.5 L16 13 L14 14.5 L14.6 12.2 L12.5 10.5 L15.2 10.5 Z"
    fill="#c9a227"
  />
  <path d="M14.5 24 L16 25.5 L17.5 24 M16 24 L16 25.5" stroke="#8b6914" stroke-width="0.8" stroke-linecap="round" />
</svg>
