<svg xmlns="http://www.w3.org/2000/svg" viewBox="0 0 200 220" fill="none" role="img" aria-label="Car Service Nikol">
  <defs>
    <!-- Copper/bronze border -->
    <linearGradient id="bronze" x1="0%" y1="0%" x2="100%" y2="100%">
      <stop offset="0%" stop-color="#d4a84b" />
      <stop offset="50%" stop-color="#b8860b" />
      <stop offset="100%" stop-color="#8b6914" />
    </linearGradient>
    <!-- Dark blue ribbon -->
    <linearGradient id="ribbon" x1="0%" y1="0%" x2="100%" y2="0%">
      <stop offset="0%" stop-color="#1a2d4a" />
      <stop offset="50%" stop-color="#0f2744" />
      <stop offset="100%" stop-color="#1a2d4a" />
    </linearGradient>
    <!-- Metallic silver pistons -->
    <linearGradient id="piston" x1="0%" y1="0%" x2="100%" y2="100%">
      <stop offset="0%" stop-color="#9ca3af" />
      <stop offset="50%" stop-color="#6b7280" />
      <stop offset="100%" stop-color="#4b5563" />
    </linearGradient>
    <!-- Dark badge fill -->
    <linearGradient id="badgeFill" x1="0%" y1="0%" x2="100%" y2="100%">
      <stop offset="0%" stop-color="#1f2937" />
      <stop offset="100%" stop-color="#111827" />
    </linearGradient>
    <filter id="shadow" x="-20%" y="-20%" width="140%" height="140%">
      <feDropShadow dx="0" dy="1" stdDeviation="2" flood-opacity="0.3" />
    </filter>
  </defs>
  <!-- Outer hexagon - thick copper/bronze -->
  <path
    d="M100 10 L180 60 L180 150 L100 210 L20 150 L20 60 Z"
    fill="url(#badgeFill)"
    stroke="url(#bronze)"
    stroke-width="3.5"
  />
  <!-- Inner hexagon - copper double border -->
  <path
    d="M100 22 L168 64 L168 146 L100 198 L32 146 L32 64 Z"
    fill="none"
    stroke="url(#bronze)"
    stroke-width="1.2"
    opacity="0.9"
  />
  <!-- Ribbon - dark blue -->
  <path
    d="M5 94 L48 94 L56 108 L100 94 L144 108 L152 94 L195 94 L188 108 L100 126 L12 108 Z"
    fill="url(#ribbon)"
    stroke="#0d1f35"
    stroke-width="1"
    filter="url(#shadow)"
  />
  <!-- Star - gold -->
  <path
    d="M100 48 L102.5 57 L112 57 L105 63 L107 72 L100 67 L93 72 L95 63 L88 57 L97.5 57 Z"
    fill="url(#bronze)"
  />
  <!-- Crossed pistons - dark metallic silver -->
  <g fill="url(#piston)" stroke="#374151" stroke-width="1" stroke-linejoin="round">
    <path d="M56 70 L76 90 L90 76 L70 56 Z" />
    <ellipse cx="73" cy="73" rx="22" ry="10" transform="rotate(-45 73 73)" />
    <path d="M144 70 L124 90 L110 76 L130 56 Z" />
    <ellipse cx="127" cy="73" rx="22" ry="10" transform="rotate(45 127 73)" />
  </g>
  <!-- ESTD - light silver -->
  <text x="48" y="90" font-family="system-ui, sans-serif" font-size="11" font-weight="600" fill="#b8c0c8" text-anchor="middle">ESTD</text>
  <!-- 2024 - light silver -->
  <text x="152" y="90" font-family="system-ui, sans-serif" font-size="11" font-weight="600" fill="#b8c0c8" text-anchor="middle">2024</text>
  <!-- CAR SERVICE NIKOL on ribbon - light silver -->
  <text x="100" y="103" font-family="system-ui, sans-serif" font-size="11" font-weight="700" fill="#d8e0e8" text-anchor="middle" letter-spacing="0.06em">CAR SERVICE NIKOL</text>
  <!-- SERWIS SAMOCHODOWY - light silver -->
  <text x="100" y="158" font-family="system-ui, sans-serif" font-size="9" font-weight="600" fill="#b8c0c8" text-anchor="middle">SERWIS</text>
  <text x="100" y="170" font-family="system-ui, sans-serif" font-size="9" font-weight="600" fill="#b8c0c8" text-anchor="middle">SAMOCHODOWY</text>
  <!-- Small X - light silver -->
  <path d="M97 200 L100 204 L103 200 M100 200 L100 204" stroke="#b8c0c8" stroke-width="1" stroke-linecap="round" opacity="0.9" />
</svg>
